# xmcd
#
# Track frame offsets:
#	150
#	11720
#	23147
#	44195
#	57857
#	67142
#	78985
#	92337
#	103372
#	116547
#	128702
#	140860
#	153585
#
# Disc length: 2231 seconds
# Revision: 3
# Processed by: cddbd v1.5.2PL0 Copyright (c) Steve Scherf et al.
# Submitted via: dBpowerAMP V12.0
#
DISCID=b908b50d
DTITLE=Various Artist - Ultimate Super Hits: Country 40
DYEAR=2002
DGENRE=Country
TTITLE0=Ray Price - Crazy Arms
TTITLE1=Johnny Horton - The Battle of New Orleans
TTITLE2=Marty Robbins - El Paso
TTITLE3=Jimmy Dean - Big Bad John
TTITLE4=Foggy Mountain Boys - The Ballad of Jed Clampett
TTITLE5=Johnny Cash - Ring of Fire
TTITLE6=Roy Orbison - Oh, Pretty Woman
TTITLE7=Roger Miller - King of the Road
TTITLE8=David Houston - Almost Persuaded
TTITLE9=Tammy Wynette - Stand by Your Man
TTITLE10=Merle Haggard - Okie from Muskogee
TTITLE11=Lynn Anderson - Rose Garden
TTITLE12=Tanya Tucker - What's Your Mama's Name
EXTD=
EXTT0=
EXTT1=
EXTT2=
EXTT3=
EXTT4=
EXTT5=
EXTT6=
EXTT7=
EXTT8=
EXTT9=
EXTT10=
EXTT11=
EXTT12=
PLAYORDER=
